<?xml version="1.0" encoding="UTF-8"?>
<!-- Generated by Pixelmator Pro 3.5.7 -->
<svg width="512" height="512" viewBox="0 0 512 512" xmlns="http://www.w3.org/2000/svg">
    <linearGradient id="linearGradient1" x1="255.790062" y1="512.029015" x2="255.790062" y2="0.029015" gradientUnits="userSpaceOnUse">
        <stop offset="0" stop-color="#ff5e00" stop-opacity="1"/>
        <stop offset="1" stop-color="#ff8e00" stop-opacity="1"/>
    </linearGradient>
    <path id="Shield" fill="url(#linearGradient1)" fill-rule="evenodd" stroke="none" d="M 258.513031 511.960571 C 250.461243 512.201233 243.237274 511.802551 238.204895 510.839813 C 233.908951 510.017975 219.262207 506.286316 205.656586 502.547272 C 192.05098 498.808228 168.149857 492.223724 152.542984 487.915009 C 136.936127 483.606323 118.543083 478.417816 111.669556 476.384979 C 104.796036 474.352142 96.276169 471.351166 92.736526 469.716125 C 89.196892 468.081116 84.125793 464.738525 81.467438 462.288116 C 78.809082 459.837738 75.497726 455.89386 74.108879 453.523987 C 72.720032 451.154083 70.634422 446.455933 69.474182 443.083679 C 68.116028 439.136108 66.630959 429.521423 65.30471 416.089355 C 64.17173 404.614777 60.663925 366.287598 57.509579 330.917908 C 54.35524 295.548218 49.219601 237.78537 46.09705 202.55603 C 42.974503 167.326691 39.21032 124.915253 37.732201 108.30838 C 36.254082 91.701508 34.369099 70.496948 33.54335 61.187103 C 32.717606 51.877289 32.032356 40.885498 32.020576 36.760925 C 32.008793 32.636383 32.508278 26.887787 33.130531 23.986328 C 33.752789 21.084808 35.744549 16.506104 37.556664 13.81134 C 39.368782 11.116577 43.013664 7.581329 45.65641 5.955292 C 48.69038 4.08847 53.488552 2.45932 58.67445 1.535126 C 65.213608 0.369751 82.199326 0.064056 142.015854 0.035126 C 217.144226 -0.001221 217.144226 -0.001221 217.868713 3.904205 C 218.267166 6.052185 220.042603 10.537598 221.814133 13.871796 C 223.585648 17.205963 227.076767 21.73111 229.572159 23.927643 C 232.06752 26.124146 236.12262 28.867737 238.583466 30.024475 C 241.044296 31.181183 245.957901 32.653503 249.502563 33.296265 C 254.044525 34.119904 257.648376 34.150513 261.708313 33.400024 C 264.87677 32.81427 269.539368 31.419312 272.069641 30.300049 C 274.599854 29.180817 279.075409 26.015137 282.01532 23.265198 C 284.955231 20.515228 288.437988 16.139252 289.7547 13.540741 C 291.071503 10.942261 292.688263 6.812958 293.347504 4.364594 C 294.546204 -0.086975 294.546204 -0.086975 373.38382 0.225983 C 450.856537 0.533508 452.334717 0.577606 458.76239 2.773193 C 462.359894 4.002045 466.824066 6.167389 468.68277 7.585114 C 470.541504 9.002838 473.327759 12.487915 474.874481 15.329742 C 476.421204 18.17157 478.234009 23.734558 478.902893 27.691956 C 479.884521 33.499298 479.794861 38.603363 478.43808 54.153839 C 477.513489 64.750519 475.330078 89.471161 473.586029 109.088531 C 471.84198 128.705963 467.837921 173.812866 464.68811 209.326141 C 461.53833 244.839386 456.640076 299.789185 453.803101 331.436768 C 450.966156 363.084351 447.679626 399.035004 446.499695 411.327118 C 445.319733 423.619202 443.629517 436.473633 442.743622 439.892426 C 441.857727 443.311279 439.967133 448.409027 438.542267 451.220825 C 437.117432 454.032593 433.988556 458.283905 431.589233 460.668152 C 429.189941 463.052429 424.414917 466.480988 420.97818 468.287231 C 417.541412 470.093445 410.04303 473.02359 404.315094 474.798645 C 398.587158 476.57373 374.451721 483.430176 350.680756 490.035217 C 326.909821 496.640259 299.259491 504.191467 289.235626 506.815704 C 273.527588 510.92804 269.284271 511.638641 258.513031 511.960571 Z"/>
    <path id="Half" fill="#f05139" fill-opacity="0.254161" fill-rule="evenodd" stroke="#ffd1b3" stroke-width="3" stroke-linecap="round" stroke-linejoin="round" d="M 277.259003 468.267731 C 271.232697 468.700348 269.233002 468.414246 265.723694 466.617432 C 263.112457 465.280426 260.591644 462.865906 259.174438 460.344299 C 257.722595 457.761108 256.50296 453.049469 255.877075 447.605927 C 255.284027 442.447906 254.89357 368.050201 254.908051 262.963196 C 254.922318 159.393463 255.334915 83.859833 255.910614 79.42807 C 256.448669 75.285889 257.835846 70.04071 258.993164 67.772156 C 260.150513 65.503601 262.633331 62.475983 264.51059 61.044159 C 266.387817 59.612305 270.216431 57.827728 273.018585 57.07843 C 276.973572 56.020844 293.629028 55.716003 347.462921 55.716003 C 401.481171 55.716003 417.803955 56.016205 421.297546 57.073853 C 423.764404 57.820648 427.604584 60.077667 429.83139 62.089417 C 432.058136 64.101135 434.420044 67.383362 435.080048 69.383209 C 435.740051 71.383026 436.25351 77.327423 436.221069 82.592896 C 436.188629 87.858398 431.921082 137.742249 426.73764 193.445953 C 421.554169 249.149597 415.231903 317.338104 412.688141 344.975922 C 410.144348 372.613739 407.557465 399.444336 406.939484 404.599457 C 406.321533 409.754608 405.084106 416.534424 404.189697 419.665771 C 403.295288 422.797058 401.317871 427.091919 399.795471 429.209869 C 398.273071 431.32782 394.917999 434.488159 392.339722 436.23288 C 389.761475 437.97757 383.199829 440.803162 377.75827 442.511963 C 372.316742 444.220795 355.211029 448.995941 339.745605 453.123444 C 324.280182 457.250916 305.53418 462.229187 298.087891 464.186188 C 290.641571 466.143219 281.268585 467.979919 277.259003 468.267731 Z"/>
    <filter id="filter1" x="0" y="0" width="512" height="512" filterUnits="userSpaceOnUse" primitiveUnits="userSpaceOnUse" color-interpolation-filters="sRGB">
        <feGaussianBlur stdDeviation="37"/>
        <feOffset dx="-0" dy="22" result="offsetblur"/>
        <feFlood flood-color="#000000" flood-opacity="0.278525"/>
        <feComposite in2="offsetblur" operator="in"/>
        <feMerge>
            <feMergeNode/>
            <feMergeNode in="SourceGraphic"/>
        </feMerge>
    </filter>
    <path id="Letter" fill="#ffffff" fill-rule="evenodd" stroke="none" filter="url(#filter1)" d="M 360.053741 265.566803 L 191.339966 265.566803 L 197.588623 347.84082 L 253.826569 361.379578 L 372.551086 341.592163 L 367.343842 393.664307 L 254.427155 418.565552 L 141.350693 394.70575 L 118.438934 147.883728 C 118.438934 147.883728 95.004974 117.295776 83.029869 103.101654 C 65.426208 82.236023 38.247814 34.366425 38.247814 34.366425 C 38.247814 34.366425 73.01004 72.065491 85.112755 82.272827 C 91.157959 87.371246 121.563263 111.433228 121.563263 111.433228 C 121.563263 111.433228 106.01239 93.16333 97.610077 82.272827 C 90.079865 72.512573 63.242451 34.366425 63.242451 34.366425 C 63.242451 34.366425 102.220772 70.301788 119.480385 83.31424 C 128.614258 90.2005 144.475006 101.018799 144.475006 101.018799 C 144.475006 101.018799 175.520905 101.159393 175.520905 101.159393 C 175.520905 101.159393 394.421417 102.060242 394.421417 102.060242 L 389.214142 154.132385 L 180.925537 153.090942 L 187.174194 219.743286 L 365.260986 217.6604 L 360.053741 265.566803 Z"/>
</svg>
